<?xml version="1.0" encoding="UTF-8"?>
<svg viewBox="0 0 421 71" xmlns="http://www.w3.org/2000/svg">
<g fill-rule="evenodd">
<linearGradient id="a" x1="335.7" x2="417.7" y1="35" y2="35" gradientUnits="userSpaceOnUse">
<stop stop-color="#f56300" offset="0"/>
<stop stop-color="#ffa365" offset="1"/>
</linearGradient>
<path d="m421 70-105-17.5c9.665 0 17.5-7.835 17.5-17.5 0-9.665-7.835-17.5-17.5-17.5l105-17.5v70z" fill="url(#a)"/>
<path d="m298.82 51.818c-1.26 0-2.4456-0.29285-3.5586-0.88086-1.1129-0.58801-2.0057-1.5851-2.6777-2.9922-0.672-1.407-1.0078-3.3501-1.0078-5.8281v-11.654c0-1.134-0.063477-2.2582-0.18945-3.3711-0.1261-1.113-0.51502-2.0261-1.166-2.7402-0.651-0.71399-1.7322-1.0723-3.2441-1.0723-0.63 0-0.94531-0.31336-0.94531-0.94336v-1.8906c0-0.63 0.31531-0.94531 0.94531-0.94531h4.5996v-4.2207c0-0.54602 0.18835-0.9248 0.56641-1.1348 0.92395-0.50403 2.1423-1.2064 3.6543-2.1094 1.5121-0.90308 2.8553-1.9431 4.0312-3.1191 0.084106-0.083985 0.19043-0.12695 0.31641-0.12695h0.125c0.083984 0 0.12695 0.063476 0.12695 0.18945v10.521h8.4414c0.63 0 0.94531 0.31531 0.94531 0.94531v2.709c0 0.63-0.31531 0.94531-0.94531 0.94531h-8.4414v18.018c0 1.6381 0.25195 2.7621 0.75586 3.3711 0.50403 0.60901 1.1327 0.91211 1.8887 0.91211 0.71399 0 1.4716-0.19861 2.2695-0.59766 0.79797-0.39905 1.5331-0.80847 2.2051-1.2285 0.29407-0.16797 0.52344-0.25195 0.69141-0.25195 0.25208 0 0.4834 0.16785 0.69336 0.50391l1.0078 1.6387c0.12598 0.16797 0.18945 0.35644 0.18945 0.56641 0 0.25195-0.16785 0.4834-0.50391 0.69336l-1.8906 1.1973c-1.1339 0.71399-2.4977 1.3754-4.0938 1.9844-1.5959 0.60901-3.1931 0.91211-4.7891 0.91211zm-51.785-0.81836c-0.63 0-0.94531-0.31531-0.94531-0.94531v-1.8906c0-0.63 0.31531-0.94336 0.94531-0.94336h0.125c1.5541 0 2.7089-0.57752 3.4648-1.7324 0.7561-1.155 1.1348-2.5739 1.1348-4.2539v-23.625c0-1.134-0.07373-2.2253-0.2207-3.2754-0.14697-1.05-0.47253-1.9427-0.97656-2.6777-0.50391-0.73498-1.3435-1.165-2.5195-1.291-0.50391-0.041992-0.75586-0.31433-0.75586-0.81836v-2.1426c0-0.25208 0.073609-0.43018 0.2207-0.53516 0.14697-0.10498 0.36609-0.19922 0.66016-0.2832 1.974-0.672 3.9806-1.4706 6.0176-2.3945 2.037-0.92407 3.9801-2.0787 5.8281-3.4648 0.12598-0.083985 0.23047-0.12695 0.31445-0.12695h0.0625c0.083984 0 0.12695 0.042969 0.12695 0.12695v24.191c0.37805-0.75598 1.017-1.616 1.9199-2.582 0.90308-0.96594 2.0701-1.8176 3.498-2.5527 1.428-0.73498 3.1071-1.1016 5.0391-1.1016 1.9741 0 3.7697 0.31335 5.3867 0.94336 1.6169 0.63 2.9089 1.7336 3.875 3.3086 0.96594 1.5751 1.4492 3.7905 1.4492 6.6465v11.654c0 1.6801 0.37683 3.0989 1.1328 4.2539 0.7561 1.1549 1.9108 1.7324 3.4648 1.7324h0.18945c0.63 0 0.94531 0.31336 0.94531 0.94336v1.8906c0 0.63-0.31531 0.94531-0.94531 0.94531h-17.137c-0.63 0-0.94336-0.31531-0.94336-0.94531v-1.8906c0-0.63 0.31335-0.94336 0.94336-0.94336h0.18945c1.176 0 2.0175-0.57752 2.5215-1.7324 0.50403-1.155 0.75586-2.5739 0.75586-4.2539v-10.771c0-2.1001-0.27429-3.6644-0.82031-4.6934-0.54602-1.0291-1.7848-1.5449-3.7168-1.5449-1.554 0-3.0753 0.46277-4.5664 1.3867-1.491 0.92407-2.5311 2.0584-3.1191 3.4023v12.221c0 1.6801 0.38904 3.0989 1.166 4.2539 0.7771 1.1549 1.942 1.7324 3.4961 1.7324h0.125c0.63 0 0.94531 0.31336 0.94531 0.94336v1.8906c0 0.63-0.31531 0.94531-0.94531 0.94531h-18.332zm-2.8982-33.39c0.16797-0.041992 0.33594-0.062988 0.50391-0.062988 0.21008 0 0.31506 0.31494 0.31506 0.94495 0 2.0581-0.38855 3.6541-1.1655 4.7881-0.77698 1.134-1.8795 1.7009-3.3075 1.7009 1.0081 1.6801 1.512 3.6121 1.512 5.796 0 2.2261-0.55652 4.2526-1.6694 6.0795-1.113 1.827-2.6985 3.276-4.7566 4.347-2.058 1.071-4.5359 1.6066-7.434 1.6066-2.9399 0-5.481-0.58801-7.6229-1.764-0.54602 0.41992-0.81909 0.94495-0.81909 1.575s0.23108 1.1655 0.69299 1.6066c0.46204 0.44092 1.3545 0.79797 2.6775 1.0709 1.323 0.27307 3.2655 0.47253 5.8275 0.59851 1.848 0.083984 3.6436 0.27307 5.3866 0.56702 1.7429 0.29407 3.3074 0.76648 4.6935 1.4175 1.386 0.651 2.4884 1.5646 3.3075 2.7405 0.81897 1.176 1.2285 2.709 1.2285 4.599 0 1.722-0.45154 3.1815-1.3545 4.3785-0.90308 1.197-2.1211 2.1525-3.6541 2.8665-1.533 0.71411-3.2235 1.239-5.0715 1.5751-1.848 0.33594-3.7169 0.50403-5.6069 0.50403-2.562 0-4.9246-0.27307-7.0875-0.81909-2.1631-0.5459-3.906-1.386-5.229-2.5199-1.323-1.134-1.9845-2.583-1.9845-4.347 0-1.386 0.36743-2.5725 1.1025-3.5594 0.73498-0.98706 1.6274-1.7745 2.6775-2.3625-2.1421-1.344-3.213-3.255-3.213-5.733 0-1.428 0.36743-2.646 1.1024-3.6539 0.73511-1.0081 1.6696-1.743 2.8036-2.2051-2.478-2.2679-3.717-5.1239-3.717-8.568 0-2.226 0.55652-4.2524 1.6696-6.0795 1.1129-1.827 2.709-3.2865 4.788-4.3785 2.079-1.0919 4.5465-1.6379 7.4025-1.6379 1.764 0 3.3705 0.22046 4.8195 0.6615 1.4491 0.44092 2.7406 1.0394 3.8745 1.7954 0.21008 0.1261 0.38855 0.19958 0.53552 0.22058 0.14697 0.020996 0.26257 0.031494 0.34656 0.031494 0.33594 0 0.60901-0.11548 0.81897-0.34656 0.20996-0.23096 0.31494-0.6615 0.31494-1.2915v-0.18896c0-0.54602 0.23108-0.86096 0.69312-0.94495zm-16.002 4.8511c-1.5959 0-2.8455 0.44092-3.7485 1.323-0.90295 0.88196-1.533 1.9634-1.8899 3.2444-0.35706 1.281-0.53552 2.5305-0.53552 3.7485 0 1.218 0.17847 2.4675 0.53552 3.7485 0.35693 1.281 0.98694 2.3624 1.8899 3.2445 0.90308 0.88196 2.1526 1.323 3.7485 1.323 1.5961 0 2.8035-0.44104 3.6226-1.323 0.81897-0.88208 1.3755-1.9635 1.6694-3.2445 0.29407-1.281 0.44104-2.5305 0.44104-3.7485 0-1.218-0.14697-2.4675-0.44104-3.7485-0.29395-1.281-0.85046-2.3624-1.6694-3.2444-0.81909-0.88208-2.0265-1.323-3.6226-1.323zm-0.25195 37.737c3.108 0 5.4915-0.29394 7.1505-0.88196 1.6589-0.58801 2.4884-1.365 2.4884-2.3311 0-1.344-0.88196-2.2364-2.646-2.6775-1.7639-0.44104-4.2419-0.74548-7.434-0.91345-2.2679-0.1261-4.2209-0.37805-5.859-0.7561-1.176 0.7981-1.764 1.911-1.764 3.3391 0 0.63 0.23108 1.2704 0.69312 1.9215 0.46191 0.651 1.2809 1.1969 2.4569 1.6379 1.176 0.44104 2.814 0.6615 4.9141 0.6615zm-20.034-12.978c0.63 0 0.94507 0.31506 0.94507 0.94507v1.89c0 0.63-0.35706 0.94495-1.071 0.94495h-17.829c-0.71399 0-1.071-0.31494-1.071-0.94495v-1.89c0-0.63 0.31506-0.94507 0.94507-0.94507h0.12598c1.554 0 2.6985-0.57752 3.4335-1.7324 0.73499-1.155 1.1025-2.5725 1.1025-4.2526v-6.678c0-0.96606-0.073486-1.932-0.22058-2.8979-0.14697-0.96606-0.47241-1.806-0.97644-2.52s-1.344-1.134-2.52-1.26c-0.50403-0.041992-0.75598-0.31506-0.75598-0.81897v-2.1421c0-0.25195 0.083984-0.43042 0.25195-0.53552 0.16809-0.10498 0.39905-0.19946 0.69299-0.28345 3.3181-1.092 5.8695-2.2155 7.6545-3.3705 1.785-1.155 3.0975-2.1735 3.9375-3.0555 0.083985-0.083985 0.16797-0.12598 0.25195-0.12598h0.18909c0.083985 0 0.12598 0.041992 0.12598 0.12598v23.499c0 1.6801 0.37793 3.108 1.134 4.2841 0.75598 1.1759 1.911 1.7639 3.465 1.7639zm-9.0089-42.84c1.0919 0 2.163 0.52502 3.2129 1.575 1.05 1.05 1.5751 2.1001 1.5751 3.15 0 1.05-0.52502 2.1-1.5751 3.15-1.0499 1.05-2.121 1.575-3.2129 1.575-1.0081 0-2.0581-0.5249-3.15-1.575-1.05-1.0081-1.5751-2.058-1.5751-3.15 0-1.0499 0.52502-2.1 1.5751-3.15 1.0499-1.0499 2.1-1.575 3.15-1.575zm-12.852 42.84c0.63 0 0.94495 0.31506 0.94495 0.94507v1.89c0 0.63-0.35693 0.94495-1.0709 0.94495h-17.829c-0.71411 0-1.071-0.31494-1.071-0.94495v-1.89c0-0.63 0.31494-0.94507 0.94495-0.94507h0.1261c1.554 0 2.6985-0.57752 3.4335-1.7324 0.73499-1.155 1.1024-2.5725 1.1024-4.2526v-23.625c0-1.176-0.073486-2.2889-0.22046-3.339-0.14697-1.05-0.47253-1.9425-0.97644-2.6775-0.50403-0.73498-1.344-1.1655-2.52-1.2915-0.50403-0.041992-0.75598-0.31494-0.75598-0.81897v-2.1421c0-0.25195 0.083984-0.41992 0.25195-0.50391 0.16797-0.083984 0.39905-0.18909 0.69299-0.31506 2.9821-1.0919 5.3655-2.1105 7.1505-3.0554 1.785-0.94507 3.2655-1.8585 4.4415-2.7406 0.083985-0.083984 0.16797-0.12598 0.25195-0.12598h0.18896c0.084107 0 0.1261 0.041992 0.1261 0.12598v40.446c0 1.6801 0.37793 3.108 1.1339 4.2841 0.7561 1.1759 1.911 1.7639 3.4651 1.7639zm-21.546 0c0.63 0 0.94507 0.31506 0.94507 0.94507v1.89c0 0.63-0.31506 0.94495-0.94507 0.94495h-17.136c-0.63 0-0.94495-0.31494-0.94495-0.94495v-1.89c0-0.63 0.31494-0.94507 0.94495-0.94507h0.18896c1.176 0 2.016-0.57752 2.52-1.7324 0.50403-1.155 0.75598-2.5725 0.75598-4.2526v-10.773c0-2.1001-0.27295-3.6646-0.81897-4.6935-0.54602-1.0291-1.785-1.5436-3.717-1.5436-1.554 0-3.0764 0.46204-4.5675 1.386-1.491 0.92407-2.5304 2.058-3.1184 3.402v12.222c0 1.6801 0.38843 3.0975 1.1654 4.2526 0.7771 1.1549 1.9425 1.7324 3.4966 1.7324h0.12598c0.63 0 0.94495 0.31506 0.94495 0.94507v1.89c0 0.63-0.31494 0.94495-0.94495 0.94495h-18.333c-0.63 0-0.94495-0.31494-0.94495-0.94495v-1.89c0-0.63 0.31494-0.94507 0.94495-0.94507h0.12598c1.5541 0 2.709-0.57752 3.465-1.7324 0.7561-1.155 1.134-2.5725 1.134-4.2526v-23.625c0-1.134-0.073487-2.226-0.22046-3.276-0.14697-1.05-0.47254-1.9425-0.97656-2.6775-0.50391-0.73498-1.344-1.1655-2.5199-1.2915-0.50403-0.041992-0.7561-0.31494-0.7561-0.81897v-2.142c0-0.25208 0.073486-0.43054 0.22058-0.53552 0.14697-0.10498 0.36743-0.19958 0.6615-0.28357 1.974-0.672 3.9795-1.47 6.0165-2.3939 2.037-0.92407 3.9795-2.079 5.8275-3.4651 0.12598-0.083984 0.23096-0.12598 0.31494-0.12598h0.062988c0.083984 0 0.1261 0.041992 0.1261 0.12598v24.192c0.37793-0.75598 1.0184-1.6169 1.9214-2.583 0.90308-0.96594 2.0686-1.8164 3.4966-2.5515 1.428-0.73498 3.1079-1.1024 5.0399-1.1024 1.9741 0 3.7695 0.31494 5.3866 0.94495 1.6169 0.63 2.9084 1.7325 3.8745 3.3075 0.96594 1.5751 1.449 3.7905 1.449 6.6465v11.655c0 1.6801 0.37793 3.0975 1.134 4.2526 0.75598 1.1549 1.9109 1.7324 3.465 1.7324zm-42.399-4.725c0.33606 0.25195 0.50403 0.52502 0.50403 0.81897 0 0.083984-0.041992 0.25208-0.12598 0.50403-1.218 2.688-3.0134 4.6935-5.3865 6.0165-2.373 1.323-4.9666 1.9845-7.7805 1.9845-2.3521 0-4.494-0.5144-6.426-1.5435-1.932-1.0291-3.5699-2.4045-4.9139-4.1265-1.344-1.722-2.3311-3.6541-2.9611-5.796-0.63-2.1421-0.86096-4.347-0.69299-6.615 0.29407-3.4861 1.26-6.342 2.8981-8.568 1.6379-2.2261 3.6224-3.864 5.9535-4.9141 2.3309-1.0499 4.6725-1.575 7.0244-1.575 2.7721 0 5.019 0.41992 6.7411 1.26 1.7219 0.83997 3.0449 1.932 3.969 3.276 0.92395 1.344 1.554 2.751 1.89 4.2209 0.041992 0.16797 0.062988 0.31506 0.062988 0.44104 0 0.33594-0.25208 0.56702-0.7561 0.69299l-7.245 1.89c-0.25195 0.083985-0.44092 0.12598-0.56689 0.12598-0.29407 0-0.44104-0.14697-0.44104-0.44104 0-0.16797 0.010498-0.33594 0.031494-0.50403 0.020996-0.16797 0.031494-0.39892 0.031494-0.69299 0-1.344-0.42004-2.5409-1.26-3.5909s-2.142-1.575-3.906-1.575c-1.5959 0-2.856 0.50391-3.78 1.512-0.92395 1.0079-1.5854 2.2994-1.9845 3.8745-0.39893 1.575-0.59851 3.2235-0.59851 4.9454 0 2.058 0.27307 4.011 0.81909 5.859 0.54602 1.848 1.4385 3.3495 2.6775 4.5045 1.239 1.155 2.9294 1.7325 5.0714 1.7325 1.6801 0 3.234-0.40955 4.6621-1.2285 1.428-0.81897 2.604-1.9425 3.528-3.3705 0.16797-0.29407 0.42004-0.44104 0.75598-0.44104 0.20996 0 0.39905 0.062988 0.56702 0.18896zm-47.628-16.38c1.134-2.436 2.709-4.2839 4.725-5.5439 2.016-1.26 4.137-1.89 6.363-1.89 1.974 0 3.6539 0.54602 5.0399 1.6379 1.3861 1.092 2.0791 2.709 2.0791 4.8511 0 0.92395-0.083984 1.7429-0.25208 2.4569-0.16797 0.71411-0.63 1.239-1.386 1.5751l-5.922 2.3939c-0.25195 0.084107-0.44104 0.1261-0.56702 0.1261-0.37793 0-0.56702-0.18909-0.56702-0.56702 0-0.12598 0.041992-0.31506 0.1261-0.56702 0.25195-0.58801 0.40942-1.155 0.47241-1.701 0.062988-0.54602 0.094482-1.0289 0.094482-1.449 0-1.134-0.28345-1.9635-0.85046-2.4885-0.56702-0.52502-1.2705-0.78748-2.1105-0.78748-0.96606 0-1.869 0.29407-2.709 0.88196-0.83996 0.58801-1.5751 1.302-2.2051 2.1421-0.63 0.83997-1.0919 1.6589-1.386 2.4569v11.592c0 1.6801 0.37805 3.0975 1.134 4.2526 0.75598 1.1549 1.911 1.7324 3.465 1.7324h0.1261c0.63 0 0.94495 0.31506 0.94495 0.94507v1.89c0 0.63-0.31494 0.94495-0.94495 0.94495h-18.333c-0.63 0-0.94507-0.31494-0.94507-0.94495v-1.89c0-0.63 0.31506-0.94507 0.94507-0.94507h0.12598c1.554 0 2.709-0.57752 3.465-1.7324 0.75598-1.155 1.134-2.5725 1.134-4.2526v-7.938c0-1.134-0.073486-2.226-0.22058-3.276-0.14697-1.05-0.47241-1.9425-0.97644-2.6775s-1.344-1.1655-2.52-1.2915c-0.50403-0.041992-0.75598-0.31494-0.75598-0.81897v-2.1421c0-0.41992 0.31494-0.69299 0.94495-0.81897 2.9821-0.46191 5.5966-1.197 7.8435-2.205 2.2471-1.0081 3.7695-1.806 4.5675-2.394 0.1261-0.083985 0.23108-0.12598 0.31506-0.12598h0.12598c0.083984 0 0.12598 0.041992 0.12598 0.12598 0 0.041992-0.052491 0.35706-0.15747 0.94507-0.10498 0.58801-0.23096 1.3335-0.37805 2.2364-0.14697 0.90295-0.31494 1.827-0.50391 2.772-0.18909 0.94507-0.34656 1.7745-0.47253 2.4885zm-32.382-7.434c2.3939 0 4.6095 0.47241 6.6465 1.4175 2.037 0.94495 3.7904 2.226 5.2605 3.843 1.47 1.6169 2.6145 3.423 3.4335 5.418s1.2285 4.0635 1.2285 6.2054c0 3.108-0.73498 5.8905-2.2051 8.3475-1.47 2.457-3.402 4.389-5.7959 5.796-2.394 1.407-4.998 2.1105-7.812 2.1105-2.394 0-4.599-0.46191-6.615-1.386-2.0161-0.92395-3.7695-2.1735-5.2605-3.7485-1.4911-1.575-2.646-3.381-3.4651-5.418-0.81897-2.037-1.2285-4.1685-1.2285-6.3945 0-3.0659 0.71411-5.8169 2.1421-8.2529 1.428-2.436 3.339-4.368 5.7329-5.796 2.394-1.428 5.04-2.142 7.9381-2.142zm2.709 28.035c0.79797 0 1.6799-0.20996 2.646-0.62988 0.96594-0.42004 1.8164-1.155 2.5515-2.2051 0.73498-1.0499 1.1024-2.499 1.1024-4.3469 0-1.4701-0.28345-3.0975-0.85046-4.8826s-1.344-3.507-2.3311-5.166c-0.98694-1.6589-2.142-3.0239-3.465-4.095-1.323-1.071-2.7615-1.6064-4.3154-1.6064-1.722 0-3.213 0.64038-4.473 1.9214-1.26 1.281-1.89 3.0345-1.89 5.2605 0 1.4281 0.28345 3.045 0.85046 4.8511 0.56702 1.806 1.344 3.5385 2.3311 5.1975 0.98694 1.6589 2.1525 3.0239 3.4965 4.095s2.793 1.6064 4.347 1.6064zm-20.727-0.25195c0.12598 0.16797 0.18896 0.35706 0.18896 0.56702 0 0.25195-0.16797 0.48303-0.50391 0.69299l-1.89 1.197c-1.134 0.71399-2.499 1.3755-4.095 1.9845-1.5961 0.60901-3.192 0.91345-4.7881 0.91345-1.26 0-2.4464-0.29395-3.5594-0.88196-1.113-0.58801-2.0055-1.5854-2.6775-2.9926-0.672-1.407-1.0081-3.3495-1.0081-5.8275v-11.655c0-1.134-0.062989-2.2576-0.18896-3.3705-0.12598-1.113-0.51453-2.0265-1.1655-2.7406-0.651-0.71399-1.7324-1.0709-3.2445-1.0709-0.63 0-0.94495-0.31506-0.94495-0.94507v-1.89c0-0.63 0.31494-0.94495 0.94495-0.94495h4.599v-4.2209c0-0.54602 0.18896-0.92407 0.56702-1.134 0.92395-0.50403 2.142-1.2075 3.6541-2.1105 1.512-0.90308 2.856-1.9425 4.032-3.1185 0.083985-0.083985 0.18896-0.12598 0.31494-0.12598h0.12598c0.084107 0 0.1261 0.062988 0.1261 0.18896v10.521h8.4419c0.63 0 0.94507 0.31494 0.94507 0.94495v2.7091c0 0.63-0.31506 0.94495-0.94507 0.94495h-8.4419v18.018c0 1.6381 0.25195 2.7616 0.75598 3.3706 0.50403 0.60901 1.1339 0.91345 1.89 0.91345 0.71399 0 1.47-0.19946 2.2679-0.59851 0.79797-0.39905 1.533-0.80847 2.205-1.2285 0.29407-0.16797 0.52502-0.25195 0.69312-0.25195 0.25195 0 0.48291 0.16797 0.69299 0.50403z"/>
</g>
</svg>
