<svg viewBox="0 0 421 71" xmlns="http://www.w3.org/2000/svg"><g fill-rule="evenodd"><linearGradient id="prefix__a" x1="335.7" x2="417.7" y1="35" y2="35" gradientUnits="userSpaceOnUse"><stop stop-color="#f56300" offset="0"/><stop stop-color="#ffa365" offset="1"/></linearGradient><path d="M421 70L316 52.5c9.665 0 17.5-7.835 17.5-17.5s-7.835-17.5-17.5-17.5L421 0v70z" fill="url(#prefix__a)"/><path d="M298.82 51.818a7.505 7.505 0 01-3.559-.88c-1.113-.589-2.005-1.586-2.677-2.993-.672-1.407-1.008-3.35-1.008-5.828V30.463c0-1.134-.064-2.258-.19-3.371s-.515-2.026-1.166-2.74c-.65-.714-1.732-1.073-3.244-1.073-.63 0-.945-.313-.945-.943v-1.89c0-.63.315-.946.945-.946h4.6v-4.22c0-.547.188-.926.566-1.136.924-.504 2.143-1.206 3.655-2.109a20.616 20.616 0 004.03-3.119.432.432 0 01.317-.127h.125c.084 0 .127.063.127.19v10.52h8.442c.63 0 .945.316.945.946v2.709c0 .63-.315.945-.945.945h-8.442v18.018c0 1.638.252 2.762.756 3.371.504.61 1.133.912 1.889.912.714 0 1.471-.198 2.27-.597a26.662 26.662 0 002.204-1.229c.294-.168.524-.252.692-.252.252 0 .483.168.693.504l1.008 1.639a.92.92 0 01.19.566c0 .252-.168.484-.505.694l-1.89 1.197c-1.134.714-2.498 1.375-4.094 1.984-1.596.61-3.193.912-4.789.912zM247.035 51c-.63 0-.945-.316-.945-.946v-1.89c0-.63.315-.944.945-.944h.125c1.554 0 2.709-.577 3.465-1.732.756-1.155 1.135-2.574 1.135-4.254V17.61c0-1.134-.074-2.225-.221-3.275-.147-1.05-.473-1.943-.977-2.678-.504-.735-1.343-1.165-2.52-1.291-.503-.042-.755-.314-.755-.818V7.404c0-.252.074-.43.22-.535.148-.105.367-.2.66-.283a66.359 66.359 0 006.018-2.395 31.127 31.127 0 005.829-3.465c.126-.084.23-.127.314-.127h.062c.084 0 .127.043.127.127v24.191c.378-.756 1.017-1.616 1.92-2.582.903-.966 2.07-1.817 3.498-2.552 1.428-.735 3.107-1.102 5.04-1.102 1.974 0 3.77.313 5.386.943 1.617.63 2.909 1.734 3.875 3.309.966 1.575 1.45 3.79 1.45 6.647v11.654c0 1.68.376 3.098 1.132 4.253.756 1.155 1.91 1.733 3.465 1.733h.19c.63 0 .945.313.945.943v1.89c0 .63-.316.946-.946.946h-17.137c-.63 0-.943-.315-.943-.945v-1.89c0-.63.313-.944.943-.944h.19c1.176 0 2.017-.578 2.521-1.733.504-1.155.756-2.573.756-4.253V30.463c0-2.1-.274-3.665-.82-4.694-.546-1.029-1.785-1.545-3.717-1.545-1.554 0-3.075.463-4.566 1.387-1.491.924-2.531 2.058-3.12 3.402v12.221c0 1.68.39 3.1 1.167 4.254.777 1.155 1.942 1.733 3.496 1.733h.125c.63 0 .945.313.945.943v1.89c0 .63-.315.946-.945.946h-18.332zm-2.898-33.39a2.07 2.07 0 01.504-.063c.21 0 .315.315.315.945 0 2.058-.389 3.654-1.166 4.788-.777 1.134-1.88 1.7-3.307 1.7 1.008 1.68 1.512 3.613 1.512 5.797 0 2.226-.557 4.252-1.67 6.08-1.113 1.826-2.698 3.275-4.756 4.346-2.058 1.071-4.536 1.607-7.434 1.607-2.94 0-5.481-.588-7.623-1.764-.546.42-.82.945-.82 1.575s.232 1.165.694 1.606c.462.441 1.354.798 2.677 1.071 1.323.273 3.266.473 5.828.599 1.848.084 3.643.273 5.386.567 1.743.294 3.308.766 4.694 1.417 1.386.651 2.488 1.565 3.307 2.74.82 1.177 1.229 2.71 1.229 4.6 0 1.722-.452 3.181-1.355 4.378s-2.12 2.153-3.654 2.867c-1.533.714-3.223 1.239-5.071 1.575a31.285 31.285 0 01-5.607.504c-2.562 0-4.925-.273-7.088-.82-2.163-.545-3.906-1.385-5.229-2.52-1.323-1.133-1.984-2.582-1.984-4.346 0-1.386.367-2.573 1.102-3.56a8.466 8.466 0 012.678-2.362c-2.142-1.344-3.213-3.255-3.213-5.733 0-1.428.367-2.646 1.102-3.654a6.402 6.402 0 012.804-2.205c-2.478-2.268-3.717-5.124-3.717-8.568 0-2.226.556-4.252 1.67-6.08 1.112-1.827 2.708-3.286 4.787-4.378 2.08-1.092 4.547-1.638 7.403-1.638 1.764 0 3.37.22 4.82.662 1.449.44 2.74 1.039 3.874 1.795.21.126.389.2.535.22.147.022.263.032.347.032.336 0 .61-.115.819-.347.21-.23.315-.661.315-1.291v-.189c0-.546.231-.86.693-.945zm-16.002 4.85c-1.596 0-2.846.442-3.749 1.324-.903.882-1.533 1.963-1.89 3.244a13.929 13.929 0 00-.535 3.749c0 1.218.178 2.467.535 3.748.357 1.281.987 2.363 1.89 3.245.903.882 2.153 1.323 3.749 1.323s2.803-.441 3.622-1.323c.82-.882 1.376-1.964 1.67-3.245.294-1.28.44-2.53.44-3.748 0-1.218-.146-2.468-.44-3.749-.294-1.28-.85-2.362-1.67-3.244-.819-.882-2.026-1.323-3.622-1.323zm-.252 37.738c3.108 0 5.491-.294 7.15-.882 1.66-.588 2.489-1.365 2.489-2.331 0-1.344-.882-2.237-2.646-2.678-1.764-.44-4.242-.745-7.434-.913-2.268-.126-4.221-.378-5.86-.756-1.175.798-1.763 1.91-1.763 3.339 0 .63.23 1.27.693 1.921.462.651 1.28 1.197 2.457 1.638 1.176.441 2.814.662 4.914.662zM207.849 47.22c.63 0 .945.315.945.945v1.89c0 .63-.357.945-1.071.945h-17.83c-.713 0-1.07-.315-1.07-.945v-1.89c0-.63.315-.945.945-.945h.126c1.554 0 2.698-.578 3.433-1.733.735-1.155 1.103-2.572 1.103-4.252v-6.678c0-.966-.074-1.932-.22-2.898-.148-.966-.473-1.806-.977-2.52s-1.344-1.134-2.52-1.26c-.504-.042-.756-.315-.756-.82v-2.141c0-.252.084-.43.252-.536.168-.105.399-.2.693-.283 3.318-1.092 5.87-2.216 7.654-3.37 1.785-1.156 3.098-2.174 3.938-3.056.084-.084.168-.126.252-.126h.189c.084 0 .126.042.126.126v23.499c0 1.68.378 3.108 1.134 4.284.756 1.176 1.91 1.764 3.465 1.764zM198.84 4.38c1.092 0 2.163.525 3.213 1.575 1.05 1.05 1.575 2.1 1.575 3.15 0 1.05-.525 2.1-1.575 3.15-1.05 1.05-2.121 1.575-3.213 1.575-1.008 0-2.058-.525-3.15-1.575-1.05-1.008-1.575-2.058-1.575-3.15 0-1.05.525-2.1 1.575-3.15 1.05-1.05 2.1-1.575 3.15-1.575zm-12.852 42.84c.63 0 .945.315.945.945v1.89c0 .63-.357.945-1.071.945h-17.829c-.714 0-1.071-.315-1.071-.945v-1.89c0-.63.315-.945.945-.945h.126c1.554 0 2.699-.578 3.434-1.733.735-1.155 1.102-2.572 1.102-4.252V17.61c0-1.176-.074-2.29-.22-3.34-.147-1.05-.473-1.942-.977-2.677-.504-.735-1.344-1.165-2.52-1.291-.504-.042-.756-.315-.756-.82V7.342c0-.252.084-.42.252-.504.168-.084.4-.19.693-.315 2.982-1.092 5.366-2.11 7.15-3.056 1.786-.945 3.266-1.858 4.442-2.74.084-.084.168-.126.252-.126h.189c.084 0 .126.042.126.126v40.446c0 1.68.378 3.108 1.134 4.284.756 1.176 1.91 1.764 3.465 1.764zm-21.546 0c.63 0 .945.315.945.945v1.89c0 .63-.315.945-.945.945h-17.136c-.63 0-.945-.315-.945-.945v-1.89c0-.63.315-.945.945-.945h.189c1.176 0 2.016-.578 2.52-1.733.504-1.155.756-2.572.756-4.252V30.462c0-2.1-.273-3.665-.82-4.694-.545-1.029-1.784-1.543-3.716-1.543-1.554 0-3.076.462-4.568 1.386-1.49.924-2.53 2.058-3.118 3.402v12.222c0 1.68.388 3.097 1.165 4.252.778 1.155 1.943 1.733 3.497 1.733h.126c.63 0 .945.315.945.945v1.89c0 .63-.315.945-.945.945h-18.333c-.63 0-.945-.315-.945-.945v-1.89c0-.63.315-.945.945-.945h.126c1.554 0 2.709-.578 3.465-1.733.756-1.155 1.134-2.572 1.134-4.252V17.61a23.62 23.62 0 00-.22-3.276c-.147-1.05-.473-1.943-.977-2.678-.504-.735-1.344-1.165-2.52-1.291-.504-.042-.756-.315-.756-.82V7.405c0-.252.073-.43.22-.536.148-.105.368-.2.662-.283a66.332 66.332 0 006.017-2.394 31.125 31.125 0 005.827-3.465c.126-.084.231-.126.315-.126h.063c.084 0 .126.042.126.126v24.192c.378-.756 1.018-1.617 1.921-2.583.904-.966 2.07-1.817 3.497-2.552 1.428-.735 3.108-1.102 5.04-1.102 1.974 0 3.77.315 5.387.945 1.616.63 2.908 1.732 3.874 3.307.966 1.575 1.45 3.79 1.45 6.647v11.655c0 1.68.377 3.097 1.133 4.252.756 1.155 1.911 1.733 3.465 1.733zm-42.4-4.725c.337.252.505.525.505.819 0 .084-.042.252-.126.504-1.218 2.688-3.013 4.693-5.387 6.016-2.373 1.323-4.966 1.985-7.78 1.985-2.352 0-4.494-.515-6.426-1.544a15.273 15.273 0 01-4.914-4.126 17.232 17.232 0 01-2.961-5.796 18.43 18.43 0 01-.693-6.615c.294-3.486 1.26-6.342 2.898-8.568 1.638-2.226 3.623-3.864 5.954-4.914 2.33-1.05 4.672-1.575 7.024-1.575 2.772 0 5.019.42 6.741 1.26 1.722.84 3.045 1.932 3.97 3.276.923 1.344 1.553 2.75 1.89 4.22.041.169.062.316.062.442 0 .336-.252.567-.756.693l-7.245 1.89c-.252.084-.44.126-.567.126-.294 0-.44-.147-.44-.441 0-.168.01-.336.03-.505.022-.167.032-.398.032-.693 0-1.344-.42-2.54-1.26-3.59s-2.142-1.575-3.906-1.575c-1.596 0-2.856.503-3.78 1.512-.924 1.007-1.585 2.299-1.984 3.874a20.068 20.068 0 00-.599 4.945c0 2.058.273 4.011.82 5.86.545 1.847 1.438 3.349 2.677 4.504 1.239 1.155 2.929 1.732 5.071 1.732a9.21 9.21 0 004.662-1.228c1.428-.819 2.604-1.943 3.528-3.37a.817.817 0 01.756-.442c.21 0 .4.063.567.19zm-47.627-16.38c1.134-2.436 2.709-4.284 4.725-5.544 2.016-1.26 4.137-1.89 6.363-1.89 1.974 0 3.654.546 5.04 1.638 1.386 1.092 2.079 2.709 2.079 4.85 0 .925-.084 1.744-.252 2.458-.168.714-.63 1.239-1.386 1.575l-5.922 2.394c-.252.084-.441.126-.567.126-.378 0-.567-.19-.567-.567 0-.126.042-.315.126-.567.252-.588.41-1.155.472-1.701a12.81 12.81 0 00.095-1.45c0-1.133-.284-1.963-.85-2.488-.568-.525-1.271-.787-2.111-.787-.966 0-1.87.294-2.71.882a9.692 9.692 0 00-2.204 2.142c-.63.84-1.092 1.659-1.386 2.457v11.592c0 1.68.378 3.097 1.134 4.252.756 1.155 1.91 1.733 3.465 1.733h.126c.63 0 .945.315.945.945v1.89c0 .63-.315.945-.945.945H61.752c-.63 0-.945-.315-.945-.945v-1.89c0-.63.315-.945.945-.945h.126c1.554 0 2.709-.578 3.465-1.733.756-1.155 1.134-2.572 1.134-4.252v-7.938c0-1.134-.074-2.226-.22-3.276-.148-1.05-.473-1.943-.977-2.678s-1.344-1.165-2.52-1.291c-.504-.042-.756-.315-.756-.82v-2.141c0-.42.315-.693.945-.82 2.982-.461 5.596-1.196 7.843-2.204 2.247-1.008 3.77-1.806 4.568-2.394.126-.084.23-.126.315-.126h.126c.084 0 .126.042.126.126 0 .042-.053.357-.158.945-.105.588-.23 1.333-.378 2.236a78.272 78.272 0 01-.504 2.772c-.189.945-.346 1.775-.472 2.489zM42.033 18.68c2.394 0 4.61.472 6.646 1.417a16.294 16.294 0 015.26 3.843c1.47 1.617 2.615 3.423 3.434 5.418s1.229 4.064 1.229 6.206c0 3.108-.735 5.89-2.205 8.347-1.47 2.457-3.402 4.39-5.796 5.796-2.394 1.407-4.998 2.11-7.812 2.11-2.394 0-4.6-.461-6.615-1.385a16.814 16.814 0 01-5.26-3.749 17.069 17.069 0 01-3.466-5.418 16.984 16.984 0 01-1.228-6.394c0-3.066.714-5.817 2.142-8.253s3.339-4.368 5.733-5.796c2.394-1.428 5.04-2.142 7.938-2.142zm2.709 28.035c.798 0 1.68-.21 2.646-.63.966-.42 1.816-1.155 2.551-2.205.735-1.05 1.103-2.5 1.103-4.347 0-1.47-.284-3.098-.85-4.883s-1.345-3.507-2.332-5.166c-.987-1.659-2.142-3.024-3.465-4.095-1.323-1.07-2.761-1.606-4.315-1.606-1.722 0-3.213.64-4.473 1.921-1.26 1.281-1.89 3.035-1.89 5.26 0 1.429.283 3.046.85 4.852a24.473 24.473 0 002.331 5.197c.987 1.66 2.153 3.024 3.497 4.095s2.793 1.607 4.347 1.607zm-20.727-.252a.922.922 0 01.189.567c0 .252-.168.483-.504.693l-1.89 1.197c-1.134.714-2.499 1.375-4.095 1.984-1.596.61-3.192.914-4.788.914a7.51 7.51 0 01-3.56-.882c-1.113-.588-2.005-1.586-2.677-2.993-.672-1.407-1.008-3.35-1.008-5.827V30.462c0-1.134-.063-2.258-.19-3.37-.125-1.114-.514-2.027-1.165-2.741-.65-.714-1.732-1.071-3.244-1.071-.63 0-.945-.315-.945-.945v-1.89c0-.63.315-.945.945-.945h4.599v-4.221c0-.546.189-.924.567-1.134.924-.504 2.142-1.208 3.654-2.11a20.625 20.625 0 004.032-3.12.427.427 0 01.315-.125h.126c.084 0 .126.063.126.189v10.52h8.442c.63 0 .945.316.945.946v2.709c0 .63-.315.945-.945.945h-8.442v18.018c0 1.638.252 2.761.756 3.37.504.61 1.134.914 1.89.914.714 0 1.47-.2 2.268-.599a26.66 26.66 0 002.205-1.228c.294-.168.525-.252.693-.252.252 0 .483.168.693.504z" fill="#fff"/></g></svg>