<?xml version="1.0" encoding="UTF-8"?>
<!-- Generated by Pixelmator Pro 3.4.3 -->
<svg width="421" height="71" viewBox="0 0 421 71" xmlns="http://www.w3.org/2000/svg">
    <g id="Gruppo-copia-2">
        <linearGradient id="linearGradient1" x1="335.695894" y1="35" x2="417.695894" y2="35" gradientUnits="userSpaceOnUse">
            <stop offset="0" stop-color="#f56300" stop-opacity="1"/>
            <stop offset="1" stop-color="#ffa365" stop-opacity="1"/>
        </linearGradient>
        <path id="Rettangolo-copia-3" fill="url(#linearGradient1)" fill-rule="evenodd" stroke="none" d="M 421 70 L 316 52.5 C 325.664978 52.5 333.5 44.664974 333.5 35 C 333.5 25.33503 325.664978 17.5 316 17.5 L 421 0 L 421 70 Z"/>
        <path id="torchlight" fill="#ffffff" fill-rule="evenodd" stroke="none" d="M 298.816406 51.818359 C 297.556396 51.818359 296.37085 51.525513 295.257813 50.9375 C 294.144897 50.349487 293.252075 49.352417 292.580078 47.945313 C 291.908081 46.53833 291.572266 44.595215 291.572266 42.117188 L 291.572266 30.462891 C 291.572266 29.328857 291.508789 28.204712 291.382813 27.091797 C 291.256714 25.97876 290.867798 25.065674 290.216797 24.351563 C 289.565796 23.637573 288.484619 23.279297 286.972656 23.279297 C 286.342651 23.279297 286.027344 22.965942 286.027344 22.335938 L 286.027344 20.445313 C 286.027344 19.815308 286.342651 19.5 286.972656 19.5 L 291.572266 19.5 L 291.572266 15.279297 C 291.572266 14.733276 291.76062 14.354492 292.138672 14.144531 C 293.062622 13.640503 294.281006 12.93811 295.792969 12.035156 C 297.305054 11.13208 298.648315 10.092041 299.824219 8.916016 C 299.908325 8.832031 300.014648 8.789063 300.140625 8.789063 L 300.265625 8.789063 C 300.349609 8.789063 300.392578 8.852539 300.392578 8.978516 L 300.392578 19.5 L 308.833984 19.5 C 309.463989 19.5 309.779297 19.815308 309.779297 20.445313 L 309.779297 23.154297 C 309.779297 23.784302 309.463989 24.099609 308.833984 24.099609 L 300.392578 24.099609 L 300.392578 42.117188 C 300.392578 43.755249 300.644531 44.879272 301.148438 45.488281 C 301.652466 46.09729 302.281128 46.400391 303.037109 46.400391 C 303.751099 46.400391 304.508667 46.201782 305.306641 45.802734 C 306.104614 45.403687 306.839722 44.994263 307.511719 44.574219 C 307.805786 44.40625 308.035156 44.322266 308.203125 44.322266 C 308.4552 44.322266 308.686523 44.490112 308.896484 44.826172 L 309.904297 46.464844 C 310.030273 46.632813 310.09375 46.821289 310.09375 47.03125 C 310.09375 47.283203 309.925903 47.514648 309.589844 47.724609 L 307.699219 48.921875 C 306.565308 49.635864 305.201538 50.297241 303.605469 50.90625 C 302.009521 51.515259 300.412354 51.818359 298.816406 51.818359 Z M 247.03125 51 C 246.401245 51 246.085938 50.684692 246.085938 50.054688 L 246.085938 48.164063 C 246.085938 47.534058 246.401245 47.220703 247.03125 47.220703 L 247.15625 47.220703 C 248.710327 47.220703 249.865112 46.643188 250.621094 45.488281 C 251.377197 44.333252 251.755859 42.914429 251.755859 41.234375 L 251.755859 17.609375 C 251.755859 16.475342 251.682129 15.384033 251.535156 14.333984 C 251.388184 13.283936 251.062622 12.391235 250.558594 11.65625 C 250.054688 10.921265 249.215088 10.491211 248.039063 10.365234 C 247.535156 10.323242 247.283203 10.050903 247.283203 9.546875 L 247.283203 7.404297 C 247.283203 7.152222 247.356812 6.974121 247.503906 6.869141 C 247.650879 6.76416 247.869995 6.669922 248.164063 6.585938 C 250.138062 5.91394 252.144653 5.115356 254.181641 4.191406 C 256.218628 3.267334 258.161743 2.112671 260.009766 0.726563 C 260.135742 0.642578 260.240234 0.599609 260.324219 0.599609 L 260.386719 0.599609 C 260.470703 0.599609 260.513672 0.642578 260.513672 0.726563 L 260.513672 24.917969 C 260.891724 24.161987 261.53064 23.302002 262.433594 22.335938 C 263.33667 21.369995 264.503662 20.518311 265.931641 19.783203 C 267.359619 19.048218 269.038696 18.681641 270.970703 18.681641 C 272.944824 18.681641 274.740356 18.994995 276.357422 19.625 C 277.974365 20.255005 279.266357 21.358643 280.232422 22.933594 C 281.198364 24.508667 281.681641 26.724125 281.681641 29.580078 L 281.681641 41.234375 C 281.681641 42.914429 282.058472 44.333252 282.814453 45.488281 C 283.570557 46.643188 284.72522 47.220703 286.279297 47.220703 L 286.46875 47.220703 C 287.098755 47.220703 287.414063 47.534058 287.414063 48.164063 L 287.414063 50.054688 C 287.414063 50.684692 287.098755 51 286.46875 51 L 269.332031 51 C 268.702026 51 268.388672 50.684692 268.388672 50.054688 L 268.388672 48.164063 C 268.388672 47.534058 268.702026 47.220703 269.332031 47.220703 L 269.521484 47.220703 C 270.69751 47.220703 271.53894 46.643188 272.042969 45.488281 C 272.546997 44.333252 272.798828 42.914429 272.798828 41.234375 L 272.798828 30.462891 C 272.798828 28.362797 272.524536 26.798462 271.978516 25.769531 C 271.432495 24.740479 270.193726 24.224609 268.261719 24.224609 C 266.707764 24.224609 265.186401 24.687378 263.695313 25.611328 C 262.204346 26.5354 261.164185 27.669678 260.576172 29.013672 L 260.576172 41.234375 C 260.576172 42.914429 260.96521 44.333252 261.742188 45.488281 C 262.519287 46.643188 263.684204 47.220703 265.238281 47.220703 L 265.363281 47.220703 C 265.993286 47.220703 266.308594 47.534058 266.308594 48.164063 L 266.308594 50.054688 C 266.308594 50.684692 265.993286 51 265.363281 51 L 247.03125 51 Z M 244.133057 17.609985 C 244.301025 17.567993 244.468994 17.546997 244.636963 17.546997 C 244.847046 17.546997 244.952026 17.861938 244.952026 18.491943 C 244.952026 20.550049 244.563477 22.145996 243.786499 23.280029 C 243.009521 24.414063 241.906982 24.980957 240.479004 24.980957 C 241.487061 26.661011 241.990967 28.593018 241.990967 30.776978 C 241.990967 33.003052 241.434448 35.029541 240.321533 36.856445 C 239.208496 38.683472 237.623047 40.132446 235.564941 41.203491 C 233.506958 42.274536 231.029053 42.810059 228.130981 42.810059 C 225.19104 42.810059 222.650024 42.222046 220.508057 41.046021 C 219.962036 41.465942 219.688965 41.990967 219.688965 42.620972 C 219.688965 43.250977 219.920044 43.786499 220.381958 44.227539 C 220.843994 44.668457 221.73645 45.025513 223.059448 45.298462 C 224.382446 45.571533 226.324951 45.770996 228.886963 45.896973 C 230.734985 45.980957 232.530518 46.170044 234.27356 46.463989 C 236.016479 46.758057 237.580933 47.230469 238.967041 47.88147 C 240.353027 48.532471 241.455444 49.446045 242.274536 50.621948 C 243.093506 51.797974 243.503052 53.330933 243.503052 55.220947 C 243.503052 56.942993 243.051514 58.402466 242.14856 59.599487 C 241.245483 60.796509 240.027466 61.751953 238.494507 62.465942 C 236.961548 63.180054 235.270996 63.704956 233.422974 64.041016 C 231.574951 64.376953 229.706055 64.545044 227.81604 64.545044 C 225.254028 64.545044 222.891479 64.271973 220.728516 63.725952 C 218.56543 63.180054 216.82251 62.339966 215.499512 61.206055 C 214.176514 60.072021 213.515015 58.623047 213.515015 56.859009 C 213.515015 55.473022 213.882446 54.286499 214.617554 53.299561 C 215.352539 52.3125 216.244995 51.525024 217.295044 50.937012 C 215.152954 49.593018 214.082031 47.682007 214.082031 45.203979 C 214.082031 43.776001 214.449463 42.557983 215.184448 41.550049 C 215.919556 40.541992 216.854004 39.807007 217.988037 39.344971 C 215.51001 37.077026 214.270996 34.221069 214.270996 30.776978 C 214.270996 28.551025 214.827515 26.524536 215.940552 24.69751 C 217.053467 22.870483 218.649536 21.411011 220.728516 20.31897 C 222.807495 19.227051 225.275024 18.68103 228.130981 18.68103 C 229.89502 18.68103 231.501465 18.901489 232.950439 19.342529 C 234.399536 19.783447 235.69104 20.381958 236.824951 21.137939 C 237.035034 21.264038 237.213501 21.337524 237.360474 21.358521 C 237.507446 21.379517 237.623047 21.390015 237.707031 21.390015 C 238.042969 21.390015 238.31604 21.274536 238.526001 21.043457 C 238.735962 20.8125 238.840942 20.381958 238.840942 19.751953 L 238.840942 19.562988 C 238.840942 19.016968 239.072021 18.702026 239.534058 18.618042 Z M 228.130981 22.46106 C 226.535034 22.46106 225.285522 22.901978 224.382446 23.784058 C 223.479492 24.666016 222.849487 25.747437 222.492554 27.028442 C 222.135498 28.309448 221.957031 29.55896 221.957031 30.776978 C 221.957031 31.994995 222.135498 33.244507 222.492554 34.525513 C 222.849487 35.806519 223.479492 36.887939 224.382446 37.77002 C 225.285522 38.651978 226.535034 39.093018 228.130981 39.093018 C 229.727051 39.093018 230.934448 38.651978 231.75354 37.77002 C 232.57251 36.887939 233.129028 35.806519 233.422974 34.525513 C 233.717041 33.244507 233.864014 31.994995 233.864014 30.776978 C 233.864014 29.55896 233.717041 28.309448 233.422974 27.028442 C 233.129028 25.747437 232.57251 24.666016 231.75354 23.784058 C 230.934448 22.901978 229.727051 22.46106 228.130981 22.46106 Z M 227.879028 60.197998 C 230.987061 60.197998 233.370483 59.904053 235.029541 59.31604 C 236.688477 58.728027 237.517944 57.95105 237.517944 56.984985 C 237.517944 55.640991 236.635986 54.748535 234.871948 54.307495 C 233.108032 53.866455 230.630005 53.562012 227.437988 53.394043 C 225.170044 53.267944 223.217041 53.015991 221.578979 52.637939 C 220.402954 53.436035 219.814941 54.54895 219.814941 55.977051 C 219.814941 56.607056 220.046021 57.247437 220.508057 57.89856 C 220.969971 58.549561 221.78894 59.095459 222.964966 59.536499 C 224.140991 59.977539 225.778931 60.197998 227.879028 60.197998 Z M 207.844971 47.219971 C 208.474976 47.219971 208.790039 47.535034 208.790039 48.165039 L 208.790039 50.055054 C 208.790039 50.685059 208.432983 51 207.718994 51 L 189.890015 51 C 189.176025 51 188.81897 50.685059 188.81897 50.055054 L 188.81897 48.165039 C 188.81897 47.535034 189.134033 47.219971 189.764038 47.219971 L 189.890015 47.219971 C 191.44397 47.219971 192.588501 46.642456 193.323486 45.487549 C 194.058472 44.33252 194.426025 42.915039 194.426025 41.234985 L 194.426025 34.557007 C 194.426025 33.590942 194.352539 32.625 194.205444 31.659058 C 194.058472 30.692993 193.733032 29.853027 193.229004 29.139038 C 192.724976 28.425049 191.88501 28.005005 190.708984 27.879028 C 190.204956 27.837036 189.953003 27.563965 189.953003 27.060059 L 189.953003 24.917969 C 189.953003 24.666016 190.036987 24.487549 190.204956 24.382446 C 190.373047 24.277466 190.604004 24.182983 190.897949 24.098999 C 194.216064 23.006958 196.767456 21.883545 198.55249 20.728516 C 200.337524 19.573486 201.650024 18.555054 202.48999 17.672974 C 202.573975 17.588989 202.657959 17.546997 202.741943 17.546997 L 202.93103 17.546997 C 203.015015 17.546997 203.057007 17.588989 203.057007 17.672974 L 203.057007 41.171997 C 203.057007 42.852051 203.434937 44.280029 204.19104 45.456055 C 204.947021 46.631958 206.102051 47.219971 207.656006 47.219971 Z M 198.83606 4.380005 C 199.927979 4.380005 200.999023 4.905029 202.04895 5.954956 C 203.098999 7.005005 203.624023 8.055054 203.624023 9.10498 C 203.624023 10.155029 203.098999 11.204956 202.04895 12.255005 C 200.999023 13.305054 199.927979 13.829956 198.83606 13.829956 C 197.828003 13.829956 196.777954 13.305054 195.686035 12.255005 C 194.635986 11.246948 194.110962 10.197021 194.110962 9.10498 C 194.110962 8.055054 194.635986 7.005005 195.686035 5.954956 C 196.735962 4.905029 197.786011 4.380005 198.83606 4.380005 Z M 185.984009 47.219971 C 186.614014 47.219971 186.928955 47.535034 186.928955 48.165039 L 186.928955 50.055054 C 186.928955 50.685059 186.572021 51 185.858032 51 L 168.029053 51 C 167.314941 51 166.958008 50.685059 166.958008 50.055054 L 166.958008 48.165039 C 166.958008 47.535034 167.272949 47.219971 167.902954 47.219971 L 168.029053 47.219971 C 169.583008 47.219971 170.727539 46.642456 171.462524 45.487549 C 172.19751 44.33252 172.564941 42.915039 172.564941 41.234985 L 172.564941 17.609985 C 172.564941 16.43396 172.491455 15.321045 172.344482 14.270996 C 172.19751 13.220947 171.871948 12.328491 171.368042 11.593506 C 170.864014 10.858521 170.024048 10.427979 168.848022 10.302002 C 168.343994 10.26001 168.092041 9.987061 168.092041 9.483032 L 168.092041 7.340942 C 168.092041 7.088989 168.176025 6.921021 168.343994 6.837036 C 168.511963 6.753052 168.743042 6.647949 169.036987 6.521973 C 172.019043 5.430054 174.402466 4.411499 176.1875 3.466553 C 177.972534 2.521484 179.453003 1.608032 180.629028 0.725952 C 180.713013 0.641968 180.796997 0.599976 180.880981 0.599976 L 181.069946 0.599976 C 181.154053 0.599976 181.196045 0.641968 181.196045 0.725952 L 181.196045 41.171997 C 181.196045 42.852051 181.573975 44.280029 182.329956 45.456055 C 183.08606 46.631958 184.240967 47.219971 185.795044 47.219971 Z M 164.437988 47.219971 C 165.067993 47.219971 165.383057 47.535034 165.383057 48.165039 L 165.383057 50.055054 C 165.383057 50.685059 165.067993 51 164.437988 51 L 147.302002 51 C 146.671997 51 146.357056 50.685059 146.357056 50.055054 L 146.357056 48.165039 C 146.357056 47.535034 146.671997 47.219971 147.302002 47.219971 L 147.490967 47.219971 C 148.666992 47.219971 149.506958 46.642456 150.010986 45.487549 C 150.515015 44.33252 150.766968 42.915039 150.766968 41.234985 L 150.766968 30.462036 C 150.766968 28.361938 150.494019 26.797485 149.947998 25.768555 C 149.401978 24.739502 148.162964 24.224976 146.230957 24.224976 C 144.677002 24.224976 143.154541 24.687012 141.663452 25.610962 C 140.172485 26.535034 139.133057 27.668945 138.545044 29.012939 L 138.545044 41.234985 C 138.545044 42.915039 138.933472 44.33252 139.710449 45.487549 C 140.487549 46.642456 141.652954 47.219971 143.207031 47.219971 L 143.333008 47.219971 C 143.963013 47.219971 144.277954 47.535034 144.277954 48.165039 L 144.277954 50.055054 C 144.277954 50.685059 143.963013 51 143.333008 51 L 125 51 C 124.369995 51 124.055054 50.685059 124.055054 50.055054 L 124.055054 48.165039 C 124.055054 47.535034 124.369995 47.219971 125 47.219971 L 125.125977 47.219971 C 126.680054 47.219971 127.834961 46.642456 128.590942 45.487549 C 129.347046 44.33252 129.724976 42.915039 129.724976 41.234985 L 129.724976 17.609985 C 129.724976 16.475952 129.651489 15.384033 129.504517 14.333984 C 129.357544 13.283936 129.031982 12.391479 128.527954 11.656494 C 128.024048 10.921509 127.18396 10.490967 126.008057 10.36499 C 125.504028 10.322998 125.251953 10.050049 125.251953 9.546021 L 125.251953 7.404053 C 125.251953 7.151978 125.325439 6.973511 125.472534 6.86853 C 125.619507 6.76355 125.839966 6.668945 126.134033 6.584961 C 128.108032 5.912964 130.113525 5.11499 132.150513 4.19104 C 134.1875 3.266968 136.130005 2.112061 137.978027 0.725952 C 138.104004 0.641968 138.208984 0.599976 138.292969 0.599976 L 138.355957 0.599976 C 138.439941 0.599976 138.482056 0.641968 138.482056 0.725952 L 138.482056 24.917969 C 138.859985 24.161987 139.500488 23.301025 140.403442 22.334961 C 141.306519 21.369019 142.472046 20.518555 143.900024 19.783447 C 145.328003 19.048462 147.007935 18.68103 148.939941 18.68103 C 150.914063 18.68103 152.709473 18.995972 154.326538 19.625977 C 155.943481 20.255981 157.234985 21.358521 158.20105 22.933472 C 159.166992 24.508545 159.650024 26.723999 159.650024 29.579956 L 159.650024 41.234985 C 159.650024 42.915039 160.027954 44.33252 160.784058 45.487549 C 161.540039 46.642456 162.694946 47.219971 164.249023 47.219971 Z M 122.03894 42.494995 C 122.375 42.746948 122.542969 43.02002 122.542969 43.313965 C 122.542969 43.397949 122.500977 43.56604 122.416992 43.817993 C 121.198975 46.505981 119.403564 48.511475 117.030518 49.834473 C 114.657471 51.157471 112.063965 51.81897 109.25 51.81897 C 106.897949 51.81897 104.755981 51.304565 102.823975 50.275513 C 100.891968 49.24646 99.254028 47.870972 97.910034 46.149048 C 96.56604 44.427002 95.578979 42.494995 94.948975 40.353027 C 94.31897 38.210938 94.088013 36.005981 94.255981 33.738037 C 94.550049 30.251953 95.515991 27.395996 97.154053 25.170044 C 98.791992 22.94397 100.776489 21.30603 103.107544 20.255981 C 105.438477 19.206055 107.780029 18.68103 110.131958 18.68103 C 112.904053 18.68103 115.151001 19.100952 116.873047 19.94104 C 118.594971 20.781006 119.917969 21.873047 120.842041 23.217041 C 121.765991 24.561035 122.395996 25.968018 122.732056 27.437988 C 122.774048 27.605957 122.795044 27.753052 122.795044 27.879028 C 122.795044 28.214966 122.542969 28.446045 122.03894 28.572021 L 114.793945 30.462036 C 114.541992 30.546021 114.353027 30.588013 114.227051 30.588013 C 113.932983 30.588013 113.786011 30.44104 113.786011 30.146973 C 113.786011 29.979004 113.796509 29.811035 113.817505 29.642944 C 113.838501 29.474976 113.848999 29.244019 113.848999 28.949951 C 113.848999 27.605957 113.428955 26.409058 112.588989 25.359009 C 111.749023 24.30896 110.447021 23.784058 108.682983 23.784058 C 107.087036 23.784058 105.827026 24.287964 104.902954 25.296021 C 103.979004 26.303955 103.317505 27.595459 102.918457 29.170532 C 102.519531 30.745483 102.319946 32.394043 102.319946 34.115967 C 102.319946 36.17395 102.593018 38.126953 103.139038 39.974976 C 103.685059 41.822998 104.577515 43.324463 105.816528 44.479492 C 107.055542 45.634521 108.745972 46.212036 110.887939 46.212036 C 112.567993 46.212036 114.121948 45.80249 115.550049 44.983521 C 116.978027 44.164551 118.154053 43.041016 119.078003 41.613037 C 119.245972 41.31897 119.498047 41.171997 119.833984 41.171997 C 120.043945 41.171997 120.233032 41.234985 120.401001 41.360962 Z M 74.411011 26.11499 C 75.545044 23.678955 77.119995 21.831055 79.135986 20.571045 C 81.151978 19.311035 83.272949 18.68103 85.499023 18.68103 C 87.473022 18.68103 89.152954 19.227051 90.53894 20.31897 C 91.925049 21.411011 92.618042 23.027954 92.618042 25.170044 C 92.618042 26.093994 92.534058 26.912964 92.365967 27.626953 C 92.197998 28.341064 91.735962 28.865967 90.97998 29.202026 L 85.057983 31.595947 C 84.80603 31.680054 84.616943 31.722046 84.490967 31.722046 C 84.113037 31.722046 83.92395 31.532959 83.92395 31.155029 C 83.92395 31.029053 83.965942 30.839966 84.050049 30.588013 C 84.302002 30 84.459473 29.432983 84.522461 28.886963 C 84.585449 28.340942 84.616943 27.858032 84.616943 27.437988 C 84.616943 26.303955 84.333496 25.474487 83.766479 24.949463 C 83.199463 24.424438 82.495972 24.161987 81.656006 24.161987 C 80.689941 24.161987 79.786987 24.456055 78.947021 25.043945 C 78.107056 25.631958 77.371948 26.345947 76.741943 27.186035 C 76.111938 28.026001 75.650024 28.844971 75.355957 29.642944 L 75.355957 41.234985 C 75.355957 42.915039 75.734009 44.33252 76.48999 45.487549 C 77.245972 46.642456 78.401001 47.219971 79.954956 47.219971 L 80.081055 47.219971 C 80.71106 47.219971 81.026001 47.535034 81.026001 48.165039 L 81.026001 50.055054 C 81.026001 50.685059 80.71106 51 80.081055 51 L 61.748047 51 C 61.118042 51 60.802979 50.685059 60.802979 50.055054 L 60.802979 48.165039 C 60.802979 47.535034 61.118042 47.219971 61.748047 47.219971 L 61.874023 47.219971 C 63.427979 47.219971 64.583008 46.642456 65.338989 45.487549 C 66.094971 44.33252 66.473022 42.915039 66.473022 41.234985 L 66.473022 33.296997 C 66.473022 32.162964 66.399536 31.071045 66.252441 30.020996 C 66.105469 28.970947 65.780029 28.078491 65.276001 27.343506 C 64.771973 26.608521 63.932007 26.177979 62.755981 26.052002 C 62.251953 26.01001 62 25.737061 62 25.233032 L 62 23.090942 C 62 22.671021 62.314941 22.397949 62.944946 22.271973 C 65.927002 21.810059 68.541504 21.074951 70.788452 20.067017 C 73.035522 19.05896 74.557983 18.260986 75.355957 17.672974 C 75.482056 17.588989 75.587036 17.546997 75.671021 17.546997 L 75.796997 17.546997 C 75.880981 17.546997 75.922974 17.588989 75.922974 17.672974 C 75.922974 17.714966 75.870483 18.030029 75.765503 18.618042 C 75.660522 19.206055 75.534546 19.951538 75.387451 20.854492 C 75.240479 21.757446 75.07251 22.681519 74.883545 23.626465 C 74.694458 24.571533 74.536987 25.401001 74.411011 26.11499 Z M 42.029053 18.68103 C 44.422974 18.68103 46.63855 19.153442 48.675537 20.098511 C 50.712524 21.043457 52.465942 22.324463 53.936035 23.941528 C 55.406006 25.558472 56.550537 27.364502 57.369507 29.359497 C 58.188477 31.354492 58.598022 33.422974 58.598022 35.564941 C 58.598022 38.672974 57.863037 41.455444 56.392944 43.912476 C 54.922974 46.369507 52.990967 48.301514 50.597046 49.708496 C 48.203003 51.115479 45.598999 51.81897 42.785034 51.81897 C 40.390991 51.81897 38.186035 51.357056 36.170044 50.432983 C 34.153931 49.509033 32.400513 48.259521 30.909546 46.684448 C 29.418457 45.109497 28.26355 43.303467 27.444458 41.266479 C 26.625488 39.229492 26.215942 37.098022 26.215942 34.871948 C 26.215942 31.80603 26.930054 29.055054 28.358032 26.619019 C 29.786011 24.182983 31.697021 22.250977 34.090942 20.822998 C 36.484985 19.39502 39.130981 18.68103 42.029053 18.68103 Z M 44.738037 46.715942 C 45.536011 46.715942 46.417969 46.505981 47.384033 46.08606 C 48.349976 45.666016 49.200439 44.93103 49.935547 43.880981 C 50.670532 42.831055 51.037964 41.381958 51.037964 39.534058 C 51.037964 38.063965 50.754517 36.436523 50.1875 34.651489 C 49.620483 32.866455 48.843506 31.144531 47.856445 29.485474 C 46.869507 27.826538 45.714478 26.461548 44.391479 25.390503 C 43.068481 24.319458 41.630005 23.784058 40.07605 23.784058 C 38.354004 23.784058 36.863037 24.424438 35.603027 25.705444 C 34.343018 26.98645 33.713013 28.73999 33.713013 30.965942 C 33.713013 32.394043 33.99646 34.010986 34.563477 35.817017 C 35.130493 37.623047 35.907471 39.355469 36.894531 41.014526 C 37.88147 42.673462 39.046997 44.038452 40.390991 45.109497 C 41.734985 46.180542 43.18396 46.715942 44.738037 46.715942 Z M 24.010986 46.463989 C 24.136963 46.631958 24.199951 46.821045 24.199951 47.031006 C 24.199951 47.282959 24.031982 47.514038 23.696045 47.723999 L 21.80603 48.921021 C 20.671997 49.63501 19.307007 50.296509 17.71106 50.905518 C 16.11499 51.514526 14.519043 51.81897 12.922974 51.81897 C 11.662964 51.81897 10.476563 51.525024 9.363525 50.937012 C 8.250488 50.348999 7.358032 49.351563 6.686035 47.944458 C 6.014038 46.537476 5.677979 44.594971 5.677979 42.116943 L 5.677979 30.462036 C 5.677979 29.328003 5.61499 28.204468 5.489014 27.091553 C 5.363037 25.978516 4.974487 25.065063 4.323486 24.350952 C 3.672485 23.636963 2.591064 23.280029 1.078979 23.280029 C 0.448975 23.280029 0.134033 22.964966 0.134033 22.334961 L 0.134033 20.444946 C 0.134033 19.814941 0.448975 19.5 1.078979 19.5 L 5.677979 19.5 L 5.677979 15.279053 C 5.677979 14.733032 5.866943 14.35498 6.244995 14.14502 C 7.168945 13.640991 8.386963 12.9375 9.899048 12.034546 C 11.411011 11.13147 12.755005 10.092041 13.93103 8.916016 C 14.015015 8.832031 14.119995 8.790039 14.245972 8.790039 L 14.371948 8.790039 C 14.456055 8.790039 14.498047 8.853027 14.498047 8.979004 L 14.498047 19.5 L 22.939941 19.5 C 23.569946 19.5 23.88501 19.814941 23.88501 20.444946 L 23.88501 23.154053 C 23.88501 23.784058 23.569946 24.098999 22.939941 24.098999 L 14.498047 24.098999 L 14.498047 42.116943 C 14.498047 43.755005 14.75 44.87854 15.254028 45.487549 C 15.758057 46.096558 16.387939 46.401001 17.144043 46.401001 C 17.858032 46.401001 18.614014 46.201538 19.411987 45.80249 C 20.209961 45.403442 20.944946 44.994019 21.616943 44.573975 C 21.911011 44.406006 22.141968 44.322021 22.310059 44.322021 C 22.562012 44.322021 22.792969 44.48999 23.003052 44.82605 Z"/>
    </g>
</svg>
